<svg version="1.1" id="Layer_1" xmlns="http://www.w3.org/2000/svg" xmlns:xlink="http://www.w3.org/1999/xlink" x="0px" y="0px"
	 width="100%" viewBox="0 0 1024 1024" enable-background="new 0 0 1024 1024" xml:space="preserve">
<path fill="#000000" opacity="1.000000" stroke="none" 
	d="
M266.628052,466.736816 
	C275.823944,436.348267 303.385651,413.714233 343.508606,417.030548 
	C373.906860,419.543091 398.767120,442.369232 405.450897,470.715881 
	C408.176575,482.275757 409.893799,493.857941 409.166504,505.740753 
	C409.018555,508.158447 409.205566,510.908478 405.511780,510.622192 
	C402.721466,496.160065 403.227051,481.279205 394.809479,468.335266 
	C381.507385,447.880371 357.462708,438.622101 333.940460,445.229279 
	C310.463043,451.823822 298.700867,468.013428 293.667938,491.097321 
	C289.626343,509.634369 292.262726,526.943726 300.899841,543.185486 
	C308.305603,557.111633 320.156372,565.808472 336.120911,569.207947 
	C344.243317,570.937500 352.050201,571.017212 360.508087,569.533020 
	C359.797913,573.309326 357.407990,574.477661 354.888977,574.981140 
	C343.598083,577.237854 332.459564,578.114014 320.838867,575.636963 
	C305.588776,572.386353 292.682068,565.621521 282.377747,554.198364 
	C270.140015,540.631958 263.434418,524.485168 263.019196,506.165833 
	C262.722382,493.068787 261.607147,479.791901 266.628052,466.736816 
z"/>
<path fill="#000000" opacity="1.000000" stroke="none" 
	d="
M318.551758,545.324951 
	C314.797363,537.201355 313.386169,528.971497 312.556763,520.466003 
	C311.516296,509.796631 311.705872,499.156982 312.835419,488.607117 
	C314.123352,476.578156 318.029297,465.514435 326.649261,456.268890 
	C337.728241,444.385834 364.608826,443.727844 375.433594,462.590881 
	C380.895660,472.109009 383.461670,482.296875 384.514709,493.268829 
	C385.475342,503.277863 384.735229,513.102661 384.263702,523.006470 
	C383.806244,532.614502 381.079529,541.580200 376.367432,549.935852 
	C368.908417,563.162537 357.082703,568.028442 342.678253,565.949463 
	C330.886230,564.247620 323.188873,556.591431 318.551758,545.324951 
z"/>
</svg>